<svg width="32" height="32" viewBox="0 0 32 32" fill="none" xmlns="http://www.w3.org/2000/svg">
<path fill-rule="evenodd" clip-rule="evenodd" d="M22.6809 19.4682C23.2329 19.4682 23.6809 19.0202 23.6809 18.4682V15.9989C23.6809 15.4469 23.2329 14.9989 22.6809 14.9989H15.0916C14.6596 13.5762 13.3503 12.5309 11.7876 12.5309C9.87559 12.5309 8.31959 14.0869 8.31959 15.9989C8.31959 17.9122 9.87559 19.4682 11.7876 19.4682C13.3503 19.4682 14.6596 18.4229 15.0916 16.9989H17.9076V18.4682C17.9076 19.0202 18.3556 19.4682 18.9076 19.4682C19.4596 19.4682 19.9076 19.0202 19.9076 18.4682V16.9989H21.6809V18.4682C21.6809 19.0202 22.1289 19.4682 22.6809 19.4682ZM10.2209 2.66553H21.7796C26.2969 2.66553 29.3329 5.83619 29.3329 10.5549V21.4442C29.3329 26.1629 26.2969 29.3322 21.7783 29.3322H10.2209C5.70226 29.3322 2.66626 26.1629 2.66626 21.4442V10.5549C2.66626 5.83619 5.70226 2.66553 10.2209 2.66553ZM10.3184 16.0001C10.3184 15.1894 10.9784 14.5307 11.7877 14.5307C12.5971 14.5307 13.2571 15.1894 13.2571 16.0001C13.2571 16.8094 12.5971 17.4681 11.7877 17.4681C10.9784 17.4681 10.3184 16.8094 10.3184 16.0001Z" fill="white"/>
</svg>
