<svg width="32" height="32" viewBox="0 0 32 32" fill="none" xmlns="http://www.w3.org/2000/svg">
<path fill-rule="evenodd" clip-rule="evenodd" d="M5.3336 15C4.78132 15 4.3336 15.4477 4.3336 16C4.3336 16.5523 4.78132 17 5.3336 17L15.0003 17V26.6667C15.0003 27.219 15.448 27.6667 16.0003 27.6667C16.5526 27.6667 17.0003 27.219 17.0003 26.6667L17.0003 17H26.6669C27.2192 17 27.6669 16.5523 27.6669 16C27.6669 15.4477 27.2192 15 26.6669 15H17.0003L17.0003 5.33333C17.0003 4.78105 16.5526 4.33333 16.0003 4.33333C15.448 4.33333 15.0003 4.78105 15.0003 5.33333V15L5.3336 15Z" fill="white"/>
</svg>
