<svg width="32" height="32" viewBox="0 0 32 32" fill="none" xmlns="http://www.w3.org/2000/svg">
<path fill-rule="evenodd" clip-rule="evenodd" d="M18.9498 10.3499C18.9498 13.8749 16.0653 16.6998 12.4658 16.6998C8.86762 16.6998 5.98176 13.8749 5.98176 10.3499C5.98176 6.82487 8.86762 4 12.4658 4C16.0653 4 18.9498 6.82487 18.9498 10.3499ZM2.66669 23.8898C2.66669 20.6267 7.18072 19.8103 12.4658 19.8103C17.7796 19.8103 22.2649 20.6548 22.2649 23.9205C22.2649 27.1836 17.7509 28 12.4658 28C7.15202 28 2.66669 27.1555 2.66669 23.8898ZM21.5646 10.465C21.5646 12.2601 21.014 13.9351 20.0486 15.3264C19.9481 15.4695 20.0369 15.6624 20.2117 15.6931C20.4543 15.7327 20.7035 15.757 20.9579 15.7621C23.4889 15.8273 25.7603 14.2315 26.3878 11.8282C27.318 8.26234 24.5887 5.06057 21.1119 5.06057C20.7348 5.06057 20.3734 5.0989 20.0212 5.16917C19.9729 5.17939 19.9207 5.20239 19.8946 5.24327C19.8607 5.29566 19.8855 5.36337 19.9194 5.40809C20.9644 6.84288 21.5646 8.58942 21.5646 10.465ZM25.7564 18.2697C27.4576 18.5955 28.5757 19.2586 29.0388 20.2258C29.4315 21.0179 29.4315 21.9378 29.0388 22.73C28.3304 24.2274 26.0447 24.709 25.1562 24.833C24.9723 24.8585 24.8249 24.7052 24.8444 24.5238C25.2984 20.374 21.6885 18.4064 20.7544 17.9542C20.7153 17.9324 20.7061 17.9018 20.71 17.8813C20.7127 17.8686 20.7296 17.8481 20.7596 17.8443C22.7805 17.8059 24.954 18.0781 25.7564 18.2697Z" fill="white"/>
</svg>
