<svg width="28" height="25" viewBox="0 0 28 25" fill="none" xmlns="http://www.w3.org/2000/svg">
<path fill-rule="evenodd" clip-rule="evenodd" d="M21.6919 7.52498H27.3334C27.3334 2.85382 24.6193 0.125 20.0208 0.125H7.97928C3.38076 0.125 0.666687 2.85382 0.666687 7.46539V17.5346C0.666687 22.1462 3.38076 24.875 7.97928 24.875H20.0208C24.6193 24.875 27.3334 22.1462 27.3334 17.5346V17.1056H21.6919C19.0736 17.1056 16.9511 14.9716 16.9511 12.3391C16.9511 9.70667 19.0736 7.57264 21.6919 7.57264V7.52498ZM21.6919 9.57457H26.3378C26.8876 9.57457 27.3334 10.0227 27.3334 10.5755V14.0551C27.327 14.6052 26.885 15.0496 26.3378 15.056H21.7985C20.4731 15.074 19.314 14.1615 19.0134 12.8634C18.8628 12.0577 19.0742 11.2262 19.5908 10.5918C20.1074 9.95744 20.8765 9.5851 21.6919 9.57457ZM21.8934 13.2328H22.3319C22.8948 13.2328 23.3511 12.774 23.3511 12.2081C23.3511 11.6421 22.8948 11.1833 22.3319 11.1833H21.8934C21.6241 11.1801 21.3648 11.2854 21.1733 11.4757C20.9818 11.666 20.8741 11.9254 20.8741 12.1961C20.8741 12.7641 21.3285 13.2263 21.8934 13.2328ZM6.98372 7.52498H14.5097C15.0726 7.52498 15.5289 7.06616 15.5289 6.50018C15.5289 5.9342 15.0726 5.47539 14.5097 5.47539H6.98372C6.4254 5.47535 5.97096 5.92694 5.96446 6.48826C5.96443 7.0562 6.41889 7.51845 6.98372 7.52498Z" fill="white"/>
</svg>
